<svg width="342" height="185" viewBox="0 0 342 185" fill="none" xmlns="http://www.w3.org/2000/svg">
<path d="M2.13802 84.5329C1.14935 50.5295 0.655013 33.5278 11.4273 24.2076C22.1996 14.8873 38.9536 17.821 72.4615 23.6884L302.126 63.9037C318.815 66.826 327.159 68.2872 332.268 74.104C337.377 79.9208 337.75 88.384 338.494 105.31L339.979 139.066C340.928 160.636 341.403 171.421 334.905 178.211C328.408 185 317.613 185 296.022 185H47.7985C27.6014 185 17.5028 185 11.1002 178.781C4.69752 172.562 4.40402 162.467 3.81702 142.279L2.13802 84.5329Z" fill="url(#paint0_linear_71_7241)"/>
<defs>
<linearGradient id="paint0_linear_71_7241" x1="0" y1="138" x2="354.142" y2="138" gradientUnits="userSpaceOnUse">
<stop stop-color="#5936B4"/>
<stop offset="1" stop-color="#362A84"/>
</linearGradient>
</defs>
</svg>
